<svg id="Capa_1" data-name="Capa 1" xmlns="http://www.w3.org/2000/svg" viewBox="0 0 473.75 243.51"><defs><style>.cls-1{fill:#adb0a7;}.cls-2{fill:#009475;}.cls-3{fill:#002e60;}.cls-4{fill:#59595b;}</style></defs><polygon class="cls-1" points="356.99 50.31 362.68 50.31 343.86 84.37 338.97 84.37 356.99 50.31"/><polygon class="cls-1" points="249.38 171.6 255.75 171.73 302.69 84.37 296.41 84.37 249.38 171.6"/><path class="cls-1" d="M239.31,95.89h6.39s-43.58,82.49-47.15,85.23c-2.44,1.86-5.3,2-17.16,2.13C180.2,183.26,239.31,95.89,239.31,95.89Z" transform="translate(-5.3 -11.52)"/><path class="cls-1" d="M199.13,61.83h5.72S160.16,145.55,160,147.07s-.24,3.93,5.51,6-16-2.74-16-2.74Z" transform="translate(-5.3 -11.52)"/><path class="cls-2" d="M158.12,61.83h41s-44.65,82.75-44.75,86c-.18,5.86,16.16,3.65,16.72,2.77,4.91-7.6,30.36-54.71,30.36-54.71h38.31l-41.91,78a17.8,17.8,0,0,1-15.68,9.37H115.82A13.72,13.72,0,0,1,103.74,163h0Z" transform="translate(-5.3 -11.52)"/><polygon class="cls-2" points="252.76 50.31 234.46 84.37 252.47 84.37 205.53 171.73 249.79 171.73 296.74 84.37 338.97 84.37 357.27 50.31 252.76 50.31"/><polygon class="cls-3" points="319.21 92.22 390.66 92.22 380.01 111.49 339.54 111.39 333.91 121.87 361.49 121.87 351.57 140.33 323.99 140.33 317.88 151.7 358.7 151.7 347.94 171.73 276.49 171.73 319.21 92.22"/><polygon class="cls-3" points="391.83 111.39 402.12 92.22 473.75 92.22 463.45 111.39 403.91 151.7 441.78 151.7 431.02 171.73 359.4 171.73 370.57 151.54 428.81 111.34 391.83 111.39"/><path class="cls-3" d="M159.71,31.14l-1.07-.63a5.46,5.46,0,0,0-6.77,1,5.68,5.68,0,0,0-2.35-7l-1.07-.63a5.46,5.46,0,0,0-5.13-.21A5.59,5.59,0,0,0,140.68,20l-1.07-.63a5.46,5.46,0,0,0-7.48,2,.41.41,0,0,0-.07.11L110,60.34c-1.44-.25-2.92-.41-4.4-.53L93.49,15.63a5.52,5.52,0,0,0-6.75-3.93l-.06,0-1.19.34a5.55,5.55,0,0,0-3.76,3.65,5.43,5.43,0,0,0-5.08-1.14l-1.19.34a5.63,5.63,0,0,0-4,5.41,5.48,5.48,0,0,0-6.48-3l-1.2.34a5.66,5.66,0,0,0-3.84,6.94L72.08,69.05c-1.19.84-2.35,1.73-3.46,2.67L31,49.58a5.48,5.48,0,0,0-7.5,2l-.06.11-.62,1.09a5.71,5.71,0,0,0,.17,5.9,5.51,5.51,0,0,0-5.1,2.81l-.62,1.09a5.74,5.74,0,0,0,.22,6A5.49,5.49,0,0,0,12.3,71.3l-.62,1.1a5.69,5.69,0,0,0,2,7.69L51,102a55,55,0,0,0-.8,6L9.44,118.91a5.64,5.64,0,0,0-3.95,6.87L5.8,127a5.61,5.61,0,0,0,3.5,3.89A5.7,5.7,0,0,0,8.12,136l.31,1.22a5.55,5.55,0,0,0,5.28,4.21,5.68,5.68,0,0,0-2.59,6.3l.32,1.22a5.52,5.52,0,0,0,6.7,4h0l41-10.93a48.3,48.3,0,0,0,3.11,4.12L41,183.75a5.69,5.69,0,0,0,2,7.69l1.07.63a5.42,5.42,0,0,0,5.24.16,5.64,5.64,0,0,0,2.75,4.55l1.08.63a5.44,5.44,0,0,0,6-.32,5.66,5.66,0,0,0,2.73,5.46l1.07.63a5.49,5.49,0,0,0,7.51-2l0-.09,21.21-37.45c.25.05.49.11.74.15l47.93-86.06c-.15-.18-.31-.35-.47-.52l21.76-38.4A5.7,5.7,0,0,0,159.71,31.14Zm-48.06,32a6.48,6.48,0,0,1,2,.31l1.23-1.83a3.72,3.72,0,0,1-.35-4.21L133,25.47a3.73,3.73,0,0,1,6.46,3.72L121,61.13a3.73,3.73,0,0,1-3.83,1.8l-1,1.92a6.67,6.67,0,1,1-4.46-1.72ZM87.29,16.73a3.87,3.87,0,0,1,4.64,2.75l9.85,36.21a3.69,3.69,0,0,1-.51,3.06c.63,2,2.28,7.35-.38,11.87a7.18,7.18,0,0,1,2,1.41,6.68,6.68,0,1,1-9.55-.18,6.58,6.58,0,0,1,4-1.86c2-3.07.76-7.88.17-9.68a3.91,3.91,0,0,1-3.06-2.8L84.65,21.3a3.67,3.67,0,0,1,2.54-4.54ZM76.7,20a3.87,3.87,0,0,1,4.64,2.75L91.19,59a3.7,3.7,0,0,1-1.36,4,47.08,47.08,0,0,1,1.52,6.93c.17,1.13-.69,2.44-1,5.51-.23,2.19,1.64,7.17,2.73,9.86a6.89,6.89,0,0,1,4.68,2.06,6.71,6.71,0,1,1-9.49-.24,6.6,6.6,0,0,1,2-1.32c-3.41-6.93-2.07-13.37-1.77-15.84.16-1.3-.49-3.92-1.21-6.28a3.87,3.87,0,0,1-3.39-2.83L74.06,24.55A3.68,3.68,0,0,1,76.62,20ZM63.38,27.22a3.69,3.69,0,0,1,2.53-4.55l.09,0a3.88,3.88,0,0,1,4.64,2.75l9.85,36.21a3.71,3.71,0,0,1-1.43,4l.65,2.13a6.88,6.88,0,0,1,5.13,2,6.68,6.68,0,1,1-9.55-.17A6.48,6.48,0,0,1,77,68.45l-.44-2.19a3.89,3.89,0,0,1-3.28-2.82ZM24.89,53.61A3.73,3.73,0,0,1,30,52.24h0L61.92,70.68A3.73,3.73,0,0,1,63.7,73.2c1.8.94,6.66,3.53,8,8.6a6.61,6.61,0,1,1-2.89,2c-.73-3.61-5-6.08-6.61-6.92a3.72,3.72,0,0,1-4,.21L26.26,58.71a3.72,3.72,0,0,1-1.37-5.09Zm-5,9.82A3.73,3.73,0,0,1,25,62.06h0L56.9,80.5a3.75,3.75,0,0,1,1.83,3.76,45.1,45.1,0,0,1,5.86,3.79c.9.67,1.22,2.2,3.14,4.59,1.37,1.7,6.11,3.87,8.73,5a6.66,6.66,0,1,1-2,4.79A6.5,6.5,0,0,1,74.9,100c-7.17-2.49-10.72-8-12.23-9.91a20.55,20.55,0,0,0-5.2-3.55,3.71,3.71,0,0,1-4.29.42L21.24,68.52a3.73,3.73,0,0,1-1.36-5.09Zm27.82,33L15.77,78a3.73,3.73,0,0,1,3.73-6.46L51.43,90a3.71,3.71,0,0,1,1.81,3.83l1.92,1a6.67,6.67,0,1,1-1.72,4.46,6.78,6.78,0,0,1,.3-2l-1.82-1.23a3.73,3.73,0,0,1-4.22.38ZM8.08,125a3.68,3.68,0,0,1,2.62-4.5h0L46,111.36a3.67,3.67,0,0,1,3,.54c1.93-.59,7.15-2.13,11.61.53A6.64,6.64,0,1,1,62,119.85h0a6.66,6.66,0,0,1-1.88-4c-3-2-7.72-.85-9.47-.29a3.67,3.67,0,0,1-2.69,3L12.6,127.71A3.7,3.7,0,0,1,8.09,125Zm3.32,10.41a3.68,3.68,0,0,1,2.62-4.5h0l35.31-9.16a3.67,3.67,0,0,1,3.89,1.39,47.29,47.29,0,0,1,6.77-1.4c1.1-.15,2.39.71,5.41,1.06,2.14.26,7-1.5,9.61-2.54a6.52,6.52,0,0,1,2-4.55A6.63,6.63,0,1,1,75.55,123c-6.74,3.25-13.06,1.85-15.48,1.53-1.28-.18-3.83.43-6.13,1.1a3.66,3.66,0,0,1-2.72,3.28l-35.31,9.16a3.71,3.71,0,0,1-4.51-2.64Zm48.61,2a6.73,6.73,0,0,1-1.18-1.62l-2.13.4a3.66,3.66,0,0,1-2.7,3.22l-35.3,9.16a3.7,3.7,0,0,1-1.88-7.15l35.3-9.16A3.73,3.73,0,0,1,56,133.72l2.07-.61a6.61,6.61,0,1,1,1.9,4.35Zm-10.15,49a3.7,3.7,0,0,1-6.41-3.68l18.29-31.56a3.68,3.68,0,0,1,2.49-1.76c.94-1.79,3.51-6.59,8.54-7.89a6.63,6.63,0,1,1,2,2.8c-3.58.73-6,4.9-6.86,6.54a3.7,3.7,0,0,1,.21,4Zm40.29-26.86a6.78,6.78,0,0,1-2-.3L87,161.13a3.69,3.69,0,0,1,.34,4.17L69,196.85a3.7,3.7,0,0,1-6.41-3.68l18.29-31.56a3.69,3.69,0,0,1,3.81-1.78l1-1.9a6.55,6.55,0,0,1-2.2-4.9,6.63,6.63,0,1,1,6.66,6.6h0Zm3.07-20.74a6.58,6.58,0,0,1-2.44-.47C88.36,145.5,82.92,149,81,150.51a19.79,19.79,0,0,0-3.52,5.13,3.68,3.68,0,0,1,.42,4.25L59.6,191.45a3.7,3.7,0,0,1-6.41-3.69L71.48,156.2a3.72,3.72,0,0,1,3.73-1.8A44.34,44.34,0,0,1,79,148.61c.67-.89,2.18-1.21,4.55-3.11,1.69-1.35,3.85-6,5-8.62a6.62,6.62,0,1,1,4.77,2h0Zm15.33-41.42A6.68,6.68,0,1,1,108.11,84a6.53,6.53,0,0,1,2.89.55c2.45-7.16,7.93-10.72,9.87-12.23,1-.8,2.4-3.06,3.55-5.2a3.71,3.71,0,0,1-.42-4.29l18.43-31.93a3.73,3.73,0,1,1,6.5,3.66l0,.07L130.46,66.6a3.76,3.76,0,0,1-3.76,1.82,45.79,45.79,0,0,1-3.79,5.86c-.67.91-2.2,1.22-4.59,3.14-1.7,1.37-3.87,6.11-5,8.73a6.68,6.68,0,0,1-4.79,11.32ZM158.71,39.6l-18.43,32a3.71,3.71,0,0,1-2.52,1.78c-.94,1.81-3.53,6.67-8.61,8a6.54,6.54,0,0,1,.44,2.36,6.69,6.69,0,1,1-2.48-5.19c3.61-.74,6.08-5,6.92-6.61a3.74,3.74,0,0,1-.21-4L152.25,36a3.73,3.73,0,0,1,6.5,3.66l0,.07Z" transform="translate(-5.3 -11.52)"/><path class="cls-3" d="M126.49,83.65A3.69,3.69,0,1,1,122.76,80h0A3.69,3.69,0,0,1,126.49,83.65Z" transform="translate(-5.3 -11.52)"/><circle class="cls-3" cx="103.12" cy="79.21" r="3.69"/><path class="cls-3" d="M115.11,69.75a3.7,3.7,0,1,1-3.7-3.7h0a3.69,3.69,0,0,1,3.69,3.69Z" transform="translate(-5.3 -11.52)"/><path class="cls-3" d="M73.92,84.28A3.69,3.69,0,1,1,70.23,88a3.69,3.69,0,0,1,3.69-3.72Z" transform="translate(-5.3 -11.52)"/><path class="cls-3" d="M81,98.64a3.7,3.7,0,1,1-3.7,3.7h0A3.7,3.7,0,0,1,81,98.64Z" transform="translate(-5.3 -11.52)"/><path class="cls-3" d="M60,95.66a3.69,3.69,0,1,1-3.7,3.69A3.69,3.69,0,0,1,60,95.66Z" transform="translate(-5.3 -11.52)"/><path class="cls-3" d="M64,112.52a3.67,3.67,0,1,1,0,5.19l0,0a3.65,3.65,0,0,1,0-5.16Z" transform="translate(-5.3 -11.52)"/><path class="cls-3" d="M78.93,117.76a3.66,3.66,0,1,1,0,5.18h0A3.65,3.65,0,0,1,78.93,117.76Z" transform="translate(-5.3 -11.52)"/><path class="cls-3" d="M62.11,130.21a3.66,3.66,0,1,1,0,5.18h0a3.65,3.65,0,0,1,0-5.16Z" transform="translate(-5.3 -11.52)"/><path class="cls-3" d="M75.19,139.2a3.67,3.67,0,1,1,3.69,3.65h0a3.64,3.64,0,0,1-3.66-3.64Z" transform="translate(-5.3 -11.52)"/><path class="cls-3" d="M89.44,132.22a3.67,3.67,0,1,1,3.69,3.65h0a3.66,3.66,0,0,1-3.67-3.65Z" transform="translate(-5.3 -11.52)"/><path class="cls-3" d="M86.48,152.94a3.67,3.67,0,1,1,3.69,3.65h0A3.64,3.64,0,0,1,86.48,153Z" transform="translate(-5.3 -11.52)"/><path class="cls-3" d="M100.65,74.05a3.69,3.69,0,1,1-5.28-.1,3.7,3.7,0,0,1,5.28.1Z" transform="translate(-5.3 -11.52)"/><path class="cls-3" d="M95.51,89.29a3.69,3.69,0,1,1-5.28-.1,3.7,3.7,0,0,1,5.28.1Z" transform="translate(-5.3 -11.52)"/><path class="cls-3" d="M82.56,71.92a3.7,3.7,0,1,1-5.29-.1,3.74,3.74,0,0,1,5.29.1Z" transform="translate(-5.3 -11.52)"/><path class="cls-4" d="M135.44,237.4l-6.06,15.07h4.56a1.78,1.78,0,0,0,.77-.11,1.15,1.15,0,0,0,.36-.57h.21l-.57,3.11H126l6.09-15.16H128.2a1.22,1.22,0,0,0-.64.12,1.67,1.67,0,0,0-.4.62l-.23-.1.57-3Z" transform="translate(-5.3 -11.52)"/><path class="cls-4" d="M146.17,250.48h-5l-.74,2.23a3.74,3.74,0,0,0-.24,1.14.76.76,0,0,0,.13.51.75.75,0,0,0,.49.22v.32H137v-.32a1.15,1.15,0,0,0,.72-.26,2.85,2.85,0,0,0,.46-.94l5.58-16.75,5.74,16.64a4.31,4.31,0,0,0,.46,1,.72.72,0,0,0,.58.27v.32h-3.93v-.32a.88.88,0,0,0,.52-.18.7.7,0,0,0,.14-.5,3.15,3.15,0,0,0-.21-1Zm-.83-2.37-1.67-5-1.71,5Z" transform="translate(-5.3 -11.52)"/><path class="cls-4" d="M155.57,251v2a2.79,2.79,0,0,0,.17,1.22.75.75,0,0,0,.69.33v.32h-3.82v-.32a.75.75,0,0,0,.69-.33,3,3,0,0,0,.17-1.22V239.27a2.89,2.89,0,0,0-.17-1.21.76.76,0,0,0-.69-.34v-.32h5.15a4.26,4.26,0,0,1,1.52.23,3,3,0,0,1,1.07.81,4.63,4.63,0,0,1,1.07,3.17,5.09,5.09,0,0,1-.27,1.74,7.07,7.07,0,0,1-1,1.71Zm0-11.19v7.41l3.06-3.9a2.83,2.83,0,0,0,.65-1.73c0-1.19-.51-1.78-1.53-1.78Z" transform="translate(-5.3 -11.52)"/><path class="cls-4" d="M170.16,250.48h-5l-.75,2.23a3.74,3.74,0,0,0-.24,1.14.82.82,0,0,0,.13.51.78.78,0,0,0,.5.22v.32h-3.86v-.32a1.16,1.16,0,0,0,.73-.26,2.69,2.69,0,0,0,.45-.94l5.59-16.75,5.73,16.64a4.64,4.64,0,0,0,.47,1,.7.7,0,0,0,.58.27v.32h-3.93v-.32a.88.88,0,0,0,.52-.18.75.75,0,0,0,.14-.5,3.15,3.15,0,0,0-.21-1Zm-.83-2.37-1.68-5-1.7,5Z" transform="translate(-5.3 -11.52)"/><path class="cls-4" d="M180.41,239.85V253a3,3,0,0,0,.16,1.22.78.78,0,0,0,.7.33v.32h-3.82v-.32a.76.76,0,0,0,.7-.33,3,3,0,0,0,.17-1.22V239.85H176a1.54,1.54,0,0,0-.82.17,1.32,1.32,0,0,0-.42.69l-.23-.12.61-3.53h.23c.07.23.31.34.71.34h6.66a1.34,1.34,0,0,0,.5-.06.43.43,0,0,0,.2-.28h.23l.56,3.65-.22.12a1.83,1.83,0,0,0-.45-.83,1.6,1.6,0,0,0-.86-.15Z" transform="translate(-5.3 -11.52)"/><path class="cls-4" d="M193.44,250.48h-5l-.75,2.23a3.74,3.74,0,0,0-.24,1.14.82.82,0,0,0,.13.51.78.78,0,0,0,.5.22v.32h-3.86v-.32a1.16,1.16,0,0,0,.73-.26,3.11,3.11,0,0,0,.45-.94L191,236.63l5.73,16.64a4.21,4.21,0,0,0,.47,1,.7.7,0,0,0,.58.27v.32h-3.93v-.32a.82.82,0,0,0,.51-.18.7.7,0,0,0,.15-.5,3.15,3.15,0,0,0-.21-1Zm-.82-2.37-1.68-5-1.7,5Z" transform="translate(-5.3 -11.52)"/><path class="cls-4" d="M247.22,208.06V221a2.59,2.59,0,0,0,.18,1.19.88.88,0,0,0,.76.33v.31H244v-.31a.89.89,0,0,0,.77-.33,2.59,2.59,0,0,0,.18-1.19V208.06h-2.58a1.86,1.86,0,0,0-.9.17,1.27,1.27,0,0,0-.45.67l-.26-.11.67-3.47h.25c.08.23.34.34.78.34h7.31a1.56,1.56,0,0,0,.55-.06c.09,0,.16-.13.22-.28h.25l.62,3.58-.24.11a2,2,0,0,0-.49-.81,2.14,2.14,0,0,0-1-.14Z" transform="translate(-5.3 -11.52)"/><path class="cls-4" d="M254.58,214.4a7.72,7.72,0,0,0,.92,3.47,5.7,5.7,0,0,0,2.4,2.35,5,5,0,0,0,4.75-.22,3.7,3.7,0,0,0,1.57-1.91l.23.09-.76,3.86a7,7,0,0,1-3.83,1.07,6.83,6.83,0,0,1-4.93-2,8.83,8.83,0,0,1-2.13-3.41,10.45,10.45,0,0,1,.48-8,8.28,8.28,0,0,1,2.73-3.24,6.63,6.63,0,0,1,3.74-1.13,6,6,0,0,1,1.23.1,9.6,9.6,0,0,1,1.4.45,1,1,0,0,0,.35.08c.19,0,.31-.12.35-.34h.24l.86,4.64-.24.13a4.6,4.6,0,0,0-1.57-2,4,4,0,0,0-2.3-.67,4.81,4.81,0,0,0-3.16,1.12,6.56,6.56,0,0,0-2,3.16h3.82a2.85,2.85,0,0,0,1.12-.14,1.28,1.28,0,0,0,.46-.73h.27l-.83,4.3h-.27a2.2,2.2,0,0,0,0-.23.86.86,0,0,0-.19-.65,1.12,1.12,0,0,0-.74-.18Z" transform="translate(-5.3 -11.52)"/><path class="cls-4" d="M277.67,221.9a6.41,6.41,0,0,1-3.76,1.21,7.11,7.11,0,0,1-3.8-1.11,8.1,8.1,0,0,1-3.28-4,10.23,10.23,0,0,1,.26-8.23,7.73,7.73,0,0,1,3.47-3.66,6.15,6.15,0,0,1,2.86-.74,5.75,5.75,0,0,1,2.22.44,5.26,5.26,0,0,0,1,.36q.3,0,.42-.42h.22l.91,4.68H278a4.21,4.21,0,0,0-4.09-2.71,4.86,4.86,0,0,0-3.83,1.86,6.76,6.76,0,0,0-1.2,2.12,7.59,7.59,0,0,0-.43,2.5,7.45,7.45,0,0,0,.84,3.45,5.66,5.66,0,0,0,2.46,2.54,5.08,5.08,0,0,0,2.38.59,4.17,4.17,0,0,0,2.36-.65,5.27,5.27,0,0,0,1.67-2.09l.23.09Z" transform="translate(-5.3 -11.52)"/><path class="cls-4" d="M290.91,223.53l-7.52-12.86V221a2.59,2.59,0,0,0,.18,1.19.88.88,0,0,0,.76.33v.31h-4v-.31a.91.91,0,0,0,.77-.33,2.59,2.59,0,0,0,.18-1.19V207.49a2.62,2.62,0,0,0-.18-1.19.88.88,0,0,0-.77-.32v-.32h2.94l5.53,9.46v-7.63a2.62,2.62,0,0,0-.18-1.19.86.86,0,0,0-.76-.32v-.32h4V206a.88.88,0,0,0-.77.32,2.62,2.62,0,0,0-.18,1.19Z" transform="translate(-5.3 -11.52)"/><path class="cls-4" d="M301.32,205.36a6.08,6.08,0,0,1,3.35,1,8.28,8.28,0,0,1,3.18,3.84,10.23,10.23,0,0,1,.82,4.16,9.66,9.66,0,0,1-.81,3.87,8.11,8.11,0,0,1-3.26,3.92,6.24,6.24,0,0,1-3.32,1,6.49,6.49,0,0,1-3.65-1.13,8.31,8.31,0,0,1-3.08-3.86,10.17,10.17,0,0,1-.75-3.89,9.52,9.52,0,0,1,2.21-6.31A6.74,6.74,0,0,1,301.32,205.36Zm0,2.51a4.55,4.55,0,0,0-3.93,2.26,7.59,7.59,0,0,0-.2,7.86,4.51,4.51,0,0,0,4,2.6,4.43,4.43,0,0,0,3-1.15,6,6,0,0,0,1.67-2.54,7.36,7.36,0,0,0,.46-2.56,7.12,7.12,0,0,0-1.73-4.91A4.37,4.37,0,0,0,301.3,207.87Z" transform="translate(-5.3 -11.52)"/><path class="cls-4" d="M313.88,220.38h4.06a3.31,3.31,0,0,0,1.35-.16,2.3,2.3,0,0,0,.6-1l.23.09-.63,3.47h-8.85v-.31a.87.87,0,0,0,.76-.33,2.43,2.43,0,0,0,.19-1.19V207.49a2.46,2.46,0,0,0-.19-1.19.84.84,0,0,0-.76-.32v-.32h4.19V206a.84.84,0,0,0-.76.32,2.46,2.46,0,0,0-.19,1.19Z" transform="translate(-5.3 -11.52)"/><path class="cls-4" d="M328.59,205.36a6.13,6.13,0,0,1,3.36,1,8.4,8.4,0,0,1,3.18,3.84,10.4,10.4,0,0,1,.82,4.16,9.66,9.66,0,0,1-.81,3.87,8.21,8.21,0,0,1-3.26,3.92,6.25,6.25,0,0,1-3.33,1,6.46,6.46,0,0,1-3.64-1.13,8.24,8.24,0,0,1-3.08-3.86,10.17,10.17,0,0,1-.75-3.89,9.52,9.52,0,0,1,2.21-6.31A6.72,6.72,0,0,1,328.59,205.36Zm0,2.51a4.53,4.53,0,0,0-3.92,2.26,7.59,7.59,0,0,0-.2,7.86,4.51,4.51,0,0,0,4,2.6,4.42,4.42,0,0,0,3-1.15,6,6,0,0,0,1.68-2.54,7.36,7.36,0,0,0,.46-2.56,7.12,7.12,0,0,0-1.74-4.91A4.34,4.34,0,0,0,328.57,207.87Zm.19-6.68h2.76v.2a.56.56,0,0,0-.33.1,2.78,2.78,0,0,0-.4.48L329,204.46H327.8Z" transform="translate(-5.3 -11.52)"/><path class="cls-4" d="M350,221.44a7.84,7.84,0,0,1-4.72,1.67,6.54,6.54,0,0,1-5.13-2.47,9.09,9.09,0,0,1-1.86-3.49,10.12,10.12,0,0,1-.42-2.9,10.34,10.34,0,0,1,.94-4.34,8,8,0,0,1,3.27-3.71,6.3,6.3,0,0,1,3.15-.84,6.14,6.14,0,0,1,2,.34,6.24,6.24,0,0,0,1.08.29c.21,0,.35-.13.42-.38H349l.76,4.55-.24.11a5,5,0,0,0-1-1.44,4.1,4.1,0,0,0-2.91-1.11,4.66,4.66,0,0,0-3.64,1.77,6.84,6.84,0,0,0-1.27,2.24,8,8,0,0,0-.43,2.58,7.12,7.12,0,0,0,1.37,4.31,4.46,4.46,0,0,0,3.69,2.11,4.24,4.24,0,0,0,2.41-.69v-6a2.46,2.46,0,0,0-.19-1.19.88.88,0,0,0-.76-.33v-.3H351v.3a.88.88,0,0,0-.75.33A2.46,2.46,0,0,0,350,214Z" transform="translate(-5.3 -11.52)"/><path class="cls-4" d="M356.2,207.49V221a2.59,2.59,0,0,0,.18,1.19.88.88,0,0,0,.76.33v.31H353v-.31a.89.89,0,0,0,.77-.33,2.59,2.59,0,0,0,.18-1.19V207.49a2.62,2.62,0,0,0-.18-1.19A.86.86,0,0,0,353,206v-.32h4.19V206a.86.86,0,0,0-.76.32A2.62,2.62,0,0,0,356.2,207.49Z" transform="translate(-5.3 -11.52)"/><path class="cls-4" d="M370.7,221.9a6.41,6.41,0,0,1-3.76,1.21,7.08,7.08,0,0,1-3.8-1.11,8.1,8.1,0,0,1-3.28-4,10.23,10.23,0,0,1,.26-8.23,7.76,7.76,0,0,1,3.46-3.66,6.19,6.19,0,0,1,2.87-.74,5.82,5.82,0,0,1,2.22.44,5.26,5.26,0,0,0,1,.36q.3,0,.42-.42h.22l.9,4.68H371a4.2,4.2,0,0,0-4.08-2.71,4.85,4.85,0,0,0-3.83,1.86,6.76,6.76,0,0,0-1.2,2.12,7.34,7.34,0,0,0-.43,2.5,7.45,7.45,0,0,0,.84,3.45,5.69,5.69,0,0,0,2.45,2.54,5.12,5.12,0,0,0,2.39.59,4.11,4.11,0,0,0,2.35-.65A5.28,5.28,0,0,0,371.2,218l.22.09Z" transform="translate(-5.3 -11.52)"/><path class="cls-4" d="M382.35,218.47h-5.5l-.82,2.19a3.44,3.44,0,0,0-.26,1.11.76.76,0,0,0,.14.51,1,1,0,0,0,.54.21v.31h-4.23v-.31a1.34,1.34,0,0,0,.8-.26,2.58,2.58,0,0,0,.5-.92l6.13-16.4,6.3,16.3a3.85,3.85,0,0,0,.51,1,.84.84,0,0,0,.63.26v.31h-4.31v-.31a1,1,0,0,0,.57-.18.67.67,0,0,0,.15-.49,2.62,2.62,0,0,0-.23-.95Zm-.91-2.32-1.84-4.89-1.87,4.89Z" transform="translate(-5.3 -11.52)"/><path class="cls-4" d="M115.74,207.66v8.6a12.81,12.81,0,0,1-.27,3.23,4.75,4.75,0,0,1-2.21,2.91,4.32,4.32,0,0,1-2.17.55,4.07,4.07,0,0,1-3.63-2,5.17,5.17,0,0,1-.74-1.81,14.89,14.89,0,0,1-.19-2.78v-8.65a2.47,2.47,0,0,0-.18-1.16.84.84,0,0,0-.75-.32v-.31h4.1v.31a.83.83,0,0,0-.74.32,2.47,2.47,0,0,0-.18,1.16V217a4.91,4.91,0,0,0,.47,2.46,2.11,2.11,0,0,0,2,1.06,2.18,2.18,0,0,0,2-1.06,4.73,4.73,0,0,0,.48-2.41v-9.41a2.47,2.47,0,0,0-.18-1.16.84.84,0,0,0-.75-.32v-.31h3.91v.31a.84.84,0,0,0-.75.32A2.47,2.47,0,0,0,115.74,207.66Z" transform="translate(-5.3 -11.52)"/><path class="cls-4" d="M129.19,223.37l-7.36-12.59v10.08A2.55,2.55,0,0,0,122,222a.88.88,0,0,0,.74.32v.3h-3.9v-.3a.87.87,0,0,0,.74-.32,2.39,2.39,0,0,0,.19-1.17v-13.2a2.32,2.32,0,0,0-.19-1.16.82.82,0,0,0-.74-.32v-.31h2.87l5.42,9.26v-7.47a2.47,2.47,0,0,0-.18-1.16.84.84,0,0,0-.75-.32v-.31h3.91v.31a.84.84,0,0,0-.75.32,2.47,2.47,0,0,0-.18,1.16Z" transform="translate(-5.3 -11.52)"/><path class="cls-4" d="M135.57,207.66v13.2a2.55,2.55,0,0,0,.18,1.17.89.89,0,0,0,.75.32v.3h-4.1v-.3a.89.89,0,0,0,.75-.32,2.55,2.55,0,0,0,.18-1.17v-13.2a2.47,2.47,0,0,0-.18-1.16.84.84,0,0,0-.75-.32v-.31h4.1v.31a.84.84,0,0,0-.75.32A2.47,2.47,0,0,0,135.57,207.66Z" transform="translate(-5.3 -11.52)"/><path class="cls-4" d="M144.52,223.06l-5.23-15.52a4.15,4.15,0,0,0-.48-1.1.81.81,0,0,0-.64-.26v-.31h4v.31c-.44,0-.66.19-.66.54a3.76,3.76,0,0,0,.22,1l2.93,8.59,3-8.62a3.28,3.28,0,0,0,.22-1c0-.32-.19-.49-.57-.5v-.31H151v.31a1,1,0,0,0-.64.22,5.76,5.76,0,0,0-.45,1.14Z" transform="translate(-5.3 -11.52)"/><path class="cls-4" d="M153.46,214.43a7.41,7.41,0,0,0,.91,3.39,5.42,5.42,0,0,0,2.35,2.3,4.61,4.61,0,0,0,2.08.48,4.8,4.8,0,0,0,2.57-.69A3.63,3.63,0,0,0,162.9,218l.23.09-.75,3.77a6.83,6.83,0,0,1-3.75,1,6.68,6.68,0,0,1-4.82-2,8.52,8.52,0,0,1-2.09-3.33,10.23,10.23,0,0,1,.47-7.81,8,8,0,0,1,2.68-3.17,6.41,6.41,0,0,1,3.66-1.11,5.66,5.66,0,0,1,1.2.1,11.08,11.08,0,0,1,1.38.44.88.88,0,0,0,.34.08c.18,0,.29-.11.34-.34H162l.85,4.55-.24.13a4.55,4.55,0,0,0-1.53-2,3.93,3.93,0,0,0-2.26-.66,4.7,4.7,0,0,0-3.09,1.1,6.38,6.38,0,0,0-2,3.09h3.74a2.76,2.76,0,0,0,1.09-.13,1.29,1.29,0,0,0,.46-.71h.26l-.81,4.2h-.27a2,2,0,0,0,0-.22.83.83,0,0,0-.19-.64,1.11,1.11,0,0,0-.71-.17Z" transform="translate(-5.3 -11.52)"/><path class="cls-4" d="M171.93,214.72l3.15,6.46a3.92,3.92,0,0,0,.55.93,1.18,1.18,0,0,0,.68.24v.3h-4.12v-.3c.36,0,.54-.17.54-.49a2.08,2.08,0,0,0-.27-.74l-2.18-4.43-2,2.31v1.86a2.55,2.55,0,0,0,.18,1.17.89.89,0,0,0,.75.32v.3h-4.1v-.3a.9.9,0,0,0,.75-.32,2.55,2.55,0,0,0,.18-1.17v-13.2a2.47,2.47,0,0,0-.18-1.16.85.85,0,0,0-.75-.32v-.31h5.1a6.91,6.91,0,0,1,1.91.2,3.23,3.23,0,0,1,1.22.78,4.11,4.11,0,0,1,1.19,3,4.44,4.44,0,0,1-.76,2.53,23.47,23.47,0,0,1-1.56,2Zm-3.64.75,3.23-3.81a2.56,2.56,0,0,0,.71-1.66,1.93,1.93,0,0,0-.47-1.33,1.07,1.07,0,0,0-.52-.36,3.24,3.24,0,0,0-.88-.09h-2.07Z" transform="translate(-5.3 -11.52)"/><path class="cls-4" d="M185.64,209.45l-.25.07a3.33,3.33,0,0,0-.89-1,3.47,3.47,0,0,0-2.1-.74,2.19,2.19,0,0,0-1.53.56,1.87,1.87,0,0,0-.61,1.44,2,2,0,0,0,.42,1.26,9.45,9.45,0,0,0,1.79,1.46,12.93,12.93,0,0,1,2.62,2.19,5.13,5.13,0,0,1,1.09,3.31,5.41,5.41,0,0,1-1.12,3.45,3.62,3.62,0,0,1-3,1.49,6.15,6.15,0,0,1-2.08-.38,3.09,3.09,0,0,0-.82-.22.64.64,0,0,0-.58.39h-.23l-.67-4.12H178a3.53,3.53,0,0,0,1.21,1.33,4.2,4.2,0,0,0,2.37.75,2.13,2.13,0,0,0,1.76-.8,2.67,2.67,0,0,0,.55-1.7,2.78,2.78,0,0,0-.89-2.1,20.68,20.68,0,0,0-2.11-1.61,7.39,7.39,0,0,1-2.31-2.26,4.69,4.69,0,0,1-.59-2.3,4.35,4.35,0,0,1,1.44-3.43,3.56,3.56,0,0,1,2.47-.93,5.55,5.55,0,0,1,2.13.51,1.13,1.13,0,0,0,.38.1c.17,0,.33-.13.47-.37h.25Z" transform="translate(-5.3 -11.52)"/><path class="cls-4" d="M191.59,207.66v13.2a2.55,2.55,0,0,0,.18,1.17.89.89,0,0,0,.75.32v.3h-4.1v-.3a.89.89,0,0,0,.75-.32,2.55,2.55,0,0,0,.18-1.17v-13.2a2.47,2.47,0,0,0-.18-1.16.84.84,0,0,0-.75-.32v-.31h4.1v.31a.84.84,0,0,0-.75.32A2.47,2.47,0,0,0,191.59,207.66Z" transform="translate(-5.3 -11.52)"/><path class="cls-4" d="M195.82,220.86v-13.2a2.47,2.47,0,0,0-.18-1.16.83.83,0,0,0-.74-.32v-.31h4.45a10.1,10.1,0,0,1,2.69.28,6.86,6.86,0,0,1,3.84,3,9.29,9.29,0,0,1,1.49,5.15,9.7,9.7,0,0,1-.86,4,8.53,8.53,0,0,1-1.65,2.4,6.47,6.47,0,0,1-2.28,1.52,8.94,8.94,0,0,1-3.05.46l-2,0H194.9v-.3a.88.88,0,0,0,.74-.32A2.55,2.55,0,0,0,195.82,220.86Zm2.25-.49h1.1a7.11,7.11,0,0,0,2.27-.27,5.37,5.37,0,0,0,2.95-2.82,6.93,6.93,0,0,0,.66-3,6.76,6.76,0,0,0-.89-3.44,5,5,0,0,0-4.65-2.7h-1.44Z" transform="translate(-5.3 -11.52)"/><path class="cls-4" d="M217.28,218.41H211.9l-.8,2.14a3.1,3.1,0,0,0-.26,1.1.67.67,0,0,0,.14.49.91.91,0,0,0,.53.21v.3h-4.14v-.3a1.38,1.38,0,0,0,.77-.25,2.63,2.63,0,0,0,.49-.91l6-16.06,6.16,16a4.22,4.22,0,0,0,.5,1,.89.89,0,0,0,.62.26v.3H217.7v-.3a1.08,1.08,0,0,0,.56-.18.63.63,0,0,0,.15-.47,2.58,2.58,0,0,0-.23-.94Zm-.89-2.27-1.8-4.79-1.84,4.79Z" transform="translate(-5.3 -11.52)"/><path class="cls-4" d="M224.53,220.86v-13.2a2.47,2.47,0,0,0-.18-1.16.84.84,0,0,0-.75-.32v-.31h4.46a10,10,0,0,1,2.68.28,6.85,6.85,0,0,1,3.85,3,9.29,9.29,0,0,1,1.49,5.15,9.7,9.7,0,0,1-.86,4,8.53,8.53,0,0,1-1.65,2.4,6.47,6.47,0,0,1-2.28,1.52,8.94,8.94,0,0,1-3,.46l-2,0H223.6v-.3a.89.89,0,0,0,.75-.32A2.55,2.55,0,0,0,224.53,220.86Zm2.25-.49h1.1a7.11,7.11,0,0,0,2.27-.27,5.33,5.33,0,0,0,2.94-2.82,7.07,7.07,0,0,0-.22-6.44,5,5,0,0,0-4.65-2.7h-1.44Z" transform="translate(-5.3 -11.52)"/><path class="cls-4" d="M24.24,245.28a8.88,8.88,0,0,0,.86,3.61,5.61,5.61,0,0,0,2.23,2.44,4,4,0,0,0,2,.51,4.18,4.18,0,0,0,2.44-.73,3.73,3.73,0,0,0,1.45-2l.22.1-.71,4a6.14,6.14,0,0,1-8.14-1,9.26,9.26,0,0,1-2-3.54,12,12,0,0,1-.53-3.55,11.65,11.65,0,0,1,1-4.76A8.24,8.24,0,0,1,25.58,237a5.6,5.6,0,0,1,3.47-1.18,5.06,5.06,0,0,1,1.14.1,9.13,9.13,0,0,1,1.31.47.88.88,0,0,0,.32.08c.18,0,.29-.12.33-.35h.22l.8,4.84-.22.13a4.74,4.74,0,0,0-1.46-2.07,3.42,3.42,0,0,0-2.14-.71,4.18,4.18,0,0,0-2.94,1.17,7,7,0,0,0-1.86,3.3h3.56a2.22,2.22,0,0,0,1-.15,1.35,1.35,0,0,0,.43-.76h.26l-.78,4.48H28.8c0-.11,0-.19,0-.24a.7.7,0,0,0-.86-.86Z" transform="translate(-5.3 -11.52)"/><path class="cls-4" d="M42.76,254.58,38.3,239.81v12.31a2.86,2.86,0,0,0,.17,1.24.76.76,0,0,0,.71.34V254H35.47v-.33a.77.77,0,0,0,.71-.34,3,3,0,0,0,.17-1.24v-14a3,3,0,0,0-.17-1.24.79.79,0,0,0-.71-.34v-.33h4.06l3.35,11.23,3.64-11.23h3.9v.33a.78.78,0,0,0-.71.34,2.86,2.86,0,0,0-.17,1.24v14a2.86,2.86,0,0,0,.17,1.24.76.76,0,0,0,.71.34V254h-3.9v-.33a.76.76,0,0,0,.71-.34,2.86,2.86,0,0,0,.17-1.24v-12Z" transform="translate(-5.3 -11.52)"/><path class="cls-4" d="M55.85,238.08v14a3,3,0,0,0,.17,1.24.77.77,0,0,0,.71.34V254H52.84v-.33a.77.77,0,0,0,.71-.34,3,3,0,0,0,.17-1.24v-14a3,3,0,0,0-.17-1.24.79.79,0,0,0-.71-.34v-.33h3.89v.33a.79.79,0,0,0-.71.34A3,3,0,0,0,55.85,238.08Z" transform="translate(-5.3 -11.52)"/><path class="cls-4" d="M62.16,251.5h3.78a2.61,2.61,0,0,0,1.24-.17,2.27,2.27,0,0,0,.57-1l.21.1L67.37,254H59.15v-.33a.77.77,0,0,0,.71-.34,3,3,0,0,0,.17-1.24v-14a3,3,0,0,0-.17-1.24.79.79,0,0,0-.71-.34v-.33H63v.33a.78.78,0,0,0-.71.34,3,3,0,0,0-.17,1.24Z" transform="translate(-5.3 -11.52)"/><path class="cls-4" d="M72.57,238.08v14a3,3,0,0,0,.17,1.24.77.77,0,0,0,.71.34V254H69.56v-.33a.77.77,0,0,0,.71-.34,3,3,0,0,0,.17-1.24v-14a3,3,0,0,0-.17-1.24.79.79,0,0,0-.71-.34v-.33h3.89v.33a.79.79,0,0,0-.71.34A3,3,0,0,0,72.57,238.08Z" transform="translate(-5.3 -11.52)"/><path class="cls-4" d="M84.61,249.52H79.5l-.76,2.27A3.9,3.9,0,0,0,78.5,253a.79.79,0,0,0,.13.52.83.83,0,0,0,.5.22V254H75.2v-.33a1.13,1.13,0,0,0,.74-.27,2.8,2.8,0,0,0,.46-1l5.71-17.08,5.85,17a4.47,4.47,0,0,0,.47,1.06.75.75,0,0,0,.59.27V254H85v-.33a.82.82,0,0,0,.53-.19.7.7,0,0,0,.15-.5,3.26,3.26,0,0,0-.22-1Zm-.84-2.42L82.06,242l-1.74,5.09Z" transform="translate(-5.3 -11.52)"/><path class="cls-4" d="M100.6,254.79l-7-13.4v10.73a2.86,2.86,0,0,0,.17,1.24.76.76,0,0,0,.71.34V254H90.78v-.33a.77.77,0,0,0,.71-.34,3,3,0,0,0,.17-1.24v-14a3,3,0,0,0-.17-1.24.79.79,0,0,0-.71-.34v-.33h2.73L98.65,246v-7.94a2.86,2.86,0,0,0-.17-1.24.78.78,0,0,0-.71-.34v-.33h3.71v.33a.78.78,0,0,0-.71.34,3,3,0,0,0-.17,1.24Z" transform="translate(-5.3 -11.52)"/><path class="cls-4" d="M110.58,235.86a5.33,5.33,0,0,1,3.12,1,8.56,8.56,0,0,1,3,4,11.9,11.9,0,0,1,.76,4.35,11.2,11.2,0,0,1-.75,4,8.41,8.41,0,0,1-3,4.08,5.4,5.4,0,0,1-3.09,1,5.58,5.58,0,0,1-3.39-1.17,8.44,8.44,0,0,1-2.86-4,11.63,11.63,0,0,1-.7-4.06,10.65,10.65,0,0,1,2.06-6.56A6,6,0,0,1,110.58,235.86Zm0,2.61a4.14,4.14,0,0,0-3.65,2.36,8.15,8.15,0,0,0-1.12,4.25,8.45,8.45,0,0,0,.93,3.94c.93,1.8,2.18,2.71,3.74,2.71a3.87,3.87,0,0,0,2.77-1.21,6.36,6.36,0,0,0,1.55-2.64,8.48,8.48,0,0,0,.43-2.67,8,8,0,0,0-1.61-5.11A4,4,0,0,0,110.56,238.47Z" transform="translate(-5.3 -11.52)"/><path class="cls-4" d="M207.53,252.62V238.86a2.79,2.79,0,0,0-.17-1.22.77.77,0,0,0-.69-.33V237h4.14a8.63,8.63,0,0,1,2.5.29,6.5,6.5,0,0,1,3.58,3.11,10.53,10.53,0,0,1,1.39,5.37,11,11,0,0,1-.81,4.18,8.74,8.74,0,0,1-1.53,2.5,6,6,0,0,1-2.12,1.58,7.39,7.39,0,0,1-2.84.48h-4.31v-.32a.76.76,0,0,0,.69-.34A2.73,2.73,0,0,0,207.53,252.62Zm2.09-.52h1a5.9,5.9,0,0,0,2.11-.28,5.22,5.22,0,0,0,2.74-2.93,8,8,0,0,0,.62-3.13,7.81,7.81,0,0,0-.83-3.59,4.65,4.65,0,0,0-4.33-2.81h-1.34Z" transform="translate(-5.3 -11.52)"/><path class="cls-4" d="M222.89,245.91a8.39,8.39,0,0,0,.84,3.54,5.52,5.52,0,0,0,2.18,2.4,4.16,4.16,0,0,0,4.33-.23,3.62,3.62,0,0,0,1.43-1.94l.21.09-.69,3.94a6,6,0,0,1-3.49,1.09,5.88,5.88,0,0,1-4.49-2.06,9,9,0,0,1-1.94-3.47,11.84,11.84,0,0,1,.44-8.14,8.13,8.13,0,0,1,2.48-3.3,5.52,5.52,0,0,1,3.41-1.16,4.93,4.93,0,0,1,1.12.1,8.73,8.73,0,0,1,1.28.46.79.79,0,0,0,.32.08c.17,0,.27-.12.31-.35h.22l.79,4.75-.22.12a4.64,4.64,0,0,0-1.43-2,3.35,3.35,0,0,0-2.1-.69,4.14,4.14,0,0,0-2.88,1.14,6.85,6.85,0,0,0-1.82,3.23h3.48a2.39,2.39,0,0,0,1-.14,1.42,1.42,0,0,0,.42-.75h.25L227.6,247h-.25a2.2,2.2,0,0,0,0-.23,1,1,0,0,0-.17-.67,1,1,0,0,0-.67-.18Z" transform="translate(-5.3 -11.52)"/><path class="cls-4" d="M237.23,252h3.7a2.77,2.77,0,0,0,1.23-.16,2.43,2.43,0,0,0,.55-1l.21.09-.58,3.55h-8.06v-.32a.79.79,0,0,0,.7-.34,2.94,2.94,0,0,0,.16-1.21V238.86a3,3,0,0,0-.16-1.22.8.8,0,0,0-.7-.33V237h3.82v.32a.79.79,0,0,0-.7.33,3,3,0,0,0-.17,1.22Z" transform="translate(-5.3 -11.52)"/><path class="cls-4" d="M255.44,245.91a8.55,8.55,0,0,0,.85,3.54,5.52,5.52,0,0,0,2.18,2.4,4,4,0,0,0,1.94.5,4,4,0,0,0,2.39-.73,3.62,3.62,0,0,0,1.43-1.94l.21.09-.69,3.94a6,6,0,0,1-3.49,1.09,5.88,5.88,0,0,1-4.49-2.06,9.18,9.18,0,0,1-2-3.47,11.8,11.8,0,0,1-.51-3.47,11.38,11.38,0,0,1,1-4.67,8.13,8.13,0,0,1,2.48-3.3,5.52,5.52,0,0,1,3.41-1.16,5,5,0,0,1,1.12.1,8.73,8.73,0,0,1,1.28.46.79.79,0,0,0,.31.08c.18,0,.28-.12.32-.35h.22l.79,4.75-.22.12a4.64,4.64,0,0,0-1.43-2,3.35,3.35,0,0,0-2.1-.69,4.14,4.14,0,0,0-2.88,1.14,6.85,6.85,0,0,0-1.82,3.23h3.48a2.39,2.39,0,0,0,1-.14,1.42,1.42,0,0,0,.42-.75h.25l-.76,4.39h-.25a2.2,2.2,0,0,0,0-.23.94.94,0,0,0-.18-.67.91.91,0,0,0-.66-.18Z" transform="translate(-5.3 -11.52)"/><path class="cls-4" d="M274.31,240.72l-.23.08a3.62,3.62,0,0,0-.83-1,3,3,0,0,0-1.95-.77,1.89,1.89,0,0,0-1.43.59,2.05,2.05,0,0,0-.56,1.5,2.25,2.25,0,0,0,.38,1.31,9.69,9.69,0,0,0,1.67,1.52,12.73,12.73,0,0,1,2.44,2.28,5.79,5.79,0,0,1,1,3.45,6.1,6.1,0,0,1-1,3.6A3.24,3.24,0,0,1,271,254.8a5.08,5.08,0,0,1-1.92-.4,2.62,2.62,0,0,0-.77-.23.59.59,0,0,0-.54.41h-.22l-.62-4.3h.24a3.52,3.52,0,0,0,1.12,1.39,3.65,3.65,0,0,0,2.2.78,1.89,1.89,0,0,0,1.64-.83,3,3,0,0,0,.51-1.77,3.09,3.09,0,0,0-.82-2.2,19.46,19.46,0,0,0-2-1.67,7.32,7.32,0,0,1-2.14-2.36,5.29,5.29,0,0,1-.55-2.4,4.83,4.83,0,0,1,1.33-3.58,3.16,3.16,0,0,1,2.3-1,4.82,4.82,0,0,1,2,.53,1,1,0,0,0,.35.1c.16,0,.3-.13.43-.39h.24Z" transform="translate(-5.3 -11.52)"/><path class="cls-4" d="M282.55,239.44v13.18a2.73,2.73,0,0,0,.17,1.21.76.76,0,0,0,.69.34v.32H279.6v-.32a.76.76,0,0,0,.69-.34,2.89,2.89,0,0,0,.17-1.21V239.44h-2.35a1.45,1.45,0,0,0-.82.17,1.28,1.28,0,0,0-.42.69l-.23-.12.61-3.54h.23c.07.23.31.35.71.35h6.66a1.3,1.3,0,0,0,.5-.06.45.45,0,0,0,.2-.29h.23l.57,3.66-.23.11a1.9,1.9,0,0,0-.45-.83,1.74,1.74,0,0,0-.86-.14Z" transform="translate(-5.3 -11.52)"/><path class="cls-4" d="M295.59,250.06h-5l-.75,2.24a3.74,3.74,0,0,0-.24,1.14.82.82,0,0,0,.13.51.9.9,0,0,0,.5.22v.32h-3.86v-.32a1.15,1.15,0,0,0,.73-.27,2.78,2.78,0,0,0,.45-.94l5.59-16.74,5.73,16.64a4.21,4.21,0,0,0,.47,1,.76.76,0,0,0,.58.27v.32H296v-.32a.87.87,0,0,0,.52-.19.72.72,0,0,0,.14-.49,3.2,3.2,0,0,0-.21-1Zm-.83-2.37-1.68-5-1.7,5Z" transform="translate(-5.3 -11.52)"/><path class="cls-4" d="M302.89,252.62V238.86a3,3,0,0,0-.17-1.22.79.79,0,0,0-.7-.33V237h4.14a8.71,8.71,0,0,1,2.51.29,6.52,6.52,0,0,1,3.57,3.11,10.43,10.43,0,0,1,1.39,5.37,11.18,11.18,0,0,1-.8,4.18,9,9,0,0,1-1.54,2.5,6,6,0,0,1-2.12,1.58,7.34,7.34,0,0,1-2.83.48H302v-.32a.77.77,0,0,0,.7-.34A2.89,2.89,0,0,0,302.89,252.62Zm2.09-.52h1a5.87,5.87,0,0,0,2.11-.28,5.19,5.19,0,0,0,2.74-2.93,7.85,7.85,0,0,0,.63-3.13,7.69,7.69,0,0,0-.84-3.59,4.63,4.63,0,0,0-4.32-2.81H305Z" transform="translate(-5.3 -11.52)"/><path class="cls-4" d="M323,236.68a5.1,5.1,0,0,1,3.05,1,8.26,8.26,0,0,1,2.9,3.91,11.6,11.6,0,0,1,.75,4.25,11,11,0,0,1-.74,3.95,8.19,8.19,0,0,1-3,4,5.28,5.28,0,0,1-3,1,5.45,5.45,0,0,1-3.32-1.16,8.32,8.32,0,0,1-2.81-3.93,11.68,11.68,0,0,1-.68-4,10.44,10.44,0,0,1,2-6.43A5.93,5.93,0,0,1,323,236.68Zm0,2.56a4.06,4.06,0,0,0-3.58,2.31,8.06,8.06,0,0,0-1.09,4.17,8.23,8.23,0,0,0,.91,3.86q1.36,2.65,3.66,2.65a3.79,3.79,0,0,0,2.71-1.18,6.2,6.2,0,0,0,1.53-2.59,8.38,8.38,0,0,0,.42-2.61,7.89,7.89,0,0,0-1.58-5A3.88,3.88,0,0,0,322.93,239.24Z" transform="translate(-5.3 -11.52)"/><path class="cls-4" d="M339.27,252.62V238.86a3,3,0,0,0-.17-1.22.79.79,0,0,0-.7-.33V237h4.14a8.71,8.71,0,0,1,2.51.29,6.52,6.52,0,0,1,3.57,3.11,10.43,10.43,0,0,1,1.39,5.37,11.18,11.18,0,0,1-.8,4.18,9,9,0,0,1-1.54,2.5,6,6,0,0,1-2.12,1.58,7.34,7.34,0,0,1-2.83.48H338.4v-.32a.77.77,0,0,0,.7-.34A2.89,2.89,0,0,0,339.27,252.62Zm2.09-.52h1a5.87,5.87,0,0,0,2.11-.28,5.19,5.19,0,0,0,2.74-2.93,7.85,7.85,0,0,0,.63-3.13,7.69,7.69,0,0,0-.84-3.59,4.63,4.63,0,0,0-4.32-2.81h-1.34Z" transform="translate(-5.3 -11.52)"/><path class="cls-4" d="M354.62,245.91a8.7,8.7,0,0,0,.84,3.54,5.54,5.54,0,0,0,2.19,2.4,3.94,3.94,0,0,0,1.93.5,4.06,4.06,0,0,0,2.4-.73,3.66,3.66,0,0,0,1.42-1.94l.21.09-.69,3.94a6,6,0,0,1-8-1,8.92,8.92,0,0,1-1.95-3.47,11.84,11.84,0,0,1,.44-8.14,8.06,8.06,0,0,1,2.49-3.3,5.47,5.47,0,0,1,3.41-1.16,4.89,4.89,0,0,1,1.11.1,8.73,8.73,0,0,1,1.28.46.83.83,0,0,0,.32.08c.17,0,.28-.12.32-.35h.22l.78,4.75-.22.12a4.64,4.64,0,0,0-1.43-2,3.35,3.35,0,0,0-2.1-.69,4.09,4.09,0,0,0-2.87,1.14,6.76,6.76,0,0,0-1.82,3.23h3.48a2.34,2.34,0,0,0,1-.14,1.3,1.3,0,0,0,.42-.75h.25l-.75,4.39h-.25c0-.1,0-.18,0-.23a.69.69,0,0,0-.85-.85Z" transform="translate(-5.3 -11.52)"/><path class="cls-4" d="M381.24,255l-4.37-14.48v12.07a2.73,2.73,0,0,0,.17,1.21.76.76,0,0,0,.69.34v.32H374.1v-.32a.76.76,0,0,0,.69-.34,2.89,2.89,0,0,0,.17-1.21V238.86a3,3,0,0,0-.17-1.22.77.77,0,0,0-.69-.33V237h4l3.28,11,3.57-11h3.82v.32a.78.78,0,0,0-.7.33,3,3,0,0,0-.17,1.22v13.76a2.89,2.89,0,0,0,.17,1.21.76.76,0,0,0,.7.34v.32h-3.82v-.32a.79.79,0,0,0,.7-.34,2.94,2.94,0,0,0,.16-1.21v-11.8Z" transform="translate(-5.3 -11.52)"/><path class="cls-4" d="M398.77,236.68a5.1,5.1,0,0,1,3.06,1,8.32,8.32,0,0,1,2.9,3.91,11.81,11.81,0,0,1,.74,4.25,11,11,0,0,1-.73,3.95,8.27,8.27,0,0,1-3,4,5.23,5.23,0,0,1-3,1,5.42,5.42,0,0,1-3.31-1.16,8.25,8.25,0,0,1-2.81-3.93,11.44,11.44,0,0,1-.68-4,10.44,10.44,0,0,1,2-6.43A5.9,5.9,0,0,1,398.77,236.68Zm0,2.56a4.06,4.06,0,0,0-3.57,2.31,8.07,8.07,0,0,0-1.1,4.17,8.24,8.24,0,0,0,.92,3.86q1.37,2.65,3.66,2.65a3.8,3.8,0,0,0,2.71-1.18,6.19,6.19,0,0,0,1.52-2.59,8.11,8.11,0,0,0,.43-2.61,7.83,7.83,0,0,0-1.59-5A3.87,3.87,0,0,0,398.75,239.24Z" transform="translate(-5.3 -11.52)"/><path class="cls-4" d="M415,246.22l2.93,6.73a4.36,4.36,0,0,0,.51,1,1.16,1.16,0,0,0,.63.25v.32h-3.83v-.32a.45.45,0,0,0,.51-.52,2.6,2.6,0,0,0-.25-.76l-2-4.62-1.85,2.41v1.94a2.89,2.89,0,0,0,.17,1.21.77.77,0,0,0,.7.34v.32h-3.82v-.32a.79.79,0,0,0,.7-.34,2.94,2.94,0,0,0,.16-1.21V238.86a3,3,0,0,0-.16-1.22.8.8,0,0,0-.7-.33V237h4.75a5.69,5.69,0,0,1,1.78.21,2.85,2.85,0,0,1,1.13.81,4.54,4.54,0,0,1,1.1,3.16,5,5,0,0,1-.7,2.64c-.23.39-.71,1.08-1.45,2.06Zm-3.39.78,3-4a2.8,2.8,0,0,0,.67-1.73,2.14,2.14,0,0,0-.44-1.39,1.07,1.07,0,0,0-.48-.38,2.85,2.85,0,0,0-.82-.09h-1.93Z" transform="translate(-5.3 -11.52)"/><path class="cls-4" d="M423.05,245.91a8.7,8.7,0,0,0,.84,3.54,5.54,5.54,0,0,0,2.19,2.4,4,4,0,0,0,1.94.5,4,4,0,0,0,2.39-.73,3.61,3.61,0,0,0,1.42-1.94l.21.09-.69,3.94a6,6,0,0,1-8-1,8.92,8.92,0,0,1-1.95-3.47,11.84,11.84,0,0,1,.44-8.14,8.06,8.06,0,0,1,2.49-3.3,5.47,5.47,0,0,1,3.41-1.16,4.89,4.89,0,0,1,1.11.1,8.73,8.73,0,0,1,1.28.46.83.83,0,0,0,.32.08c.17,0,.28-.12.32-.35H431l.78,4.75-.22.12a4.64,4.64,0,0,0-1.43-2,3.35,3.35,0,0,0-2.1-.69,4.09,4.09,0,0,0-2.87,1.14,6.76,6.76,0,0,0-1.82,3.23h3.48a2.34,2.34,0,0,0,1-.14,1.3,1.3,0,0,0,.42-.75h.25l-.75,4.39h-.25c0-.1,0-.18,0-.23a.69.69,0,0,0-.85-.85Z" transform="translate(-5.3 -11.52)"/><path class="cls-4" d="M438.09,252h3.7a2.72,2.72,0,0,0,1.22-.16,2.32,2.32,0,0,0,.55-1l.21.09-.57,3.55h-8.07v-.32a.77.77,0,0,0,.7-.34,2.89,2.89,0,0,0,.17-1.21V238.86a3,3,0,0,0-.17-1.22.79.79,0,0,0-.7-.33V237H439v.32a.8.8,0,0,0-.7.33,3,3,0,0,0-.16,1.22Z" transform="translate(-5.3 -11.52)"/><path class="cls-4" d="M452.86,236.68a5.1,5.1,0,0,1,3.06,1,8.32,8.32,0,0,1,2.9,3.91,11.81,11.81,0,0,1,.74,4.25,11,11,0,0,1-.73,3.95,8.27,8.27,0,0,1-3,4,5.23,5.23,0,0,1-3,1,5.42,5.42,0,0,1-3.31-1.16,8.25,8.25,0,0,1-2.81-3.93,11.44,11.44,0,0,1-.68-4,10.44,10.44,0,0,1,2-6.43A5.9,5.9,0,0,1,452.86,236.68Zm0,2.56a4,4,0,0,0-3.57,2.31,8.07,8.07,0,0,0-1.1,4.17,8.24,8.24,0,0,0,.92,3.86q1.37,2.65,3.66,2.65a3.8,3.8,0,0,0,2.71-1.18,6.19,6.19,0,0,0,1.52-2.59,8.11,8.11,0,0,0,.43-2.61,7.83,7.83,0,0,0-1.59-5A3.87,3.87,0,0,0,452.84,239.24Z" transform="translate(-5.3 -11.52)"/><path class="cls-4" d="M470.08,240.72l-.23.08a3.62,3.62,0,0,0-.83-1,3,3,0,0,0-1.95-.77,1.87,1.87,0,0,0-1.43.59,2.05,2.05,0,0,0-.56,1.5,2.18,2.18,0,0,0,.38,1.31,9.69,9.69,0,0,0,1.67,1.52,12.73,12.73,0,0,1,2.44,2.28,5.79,5.79,0,0,1,1,3.45,6.1,6.1,0,0,1-1,3.6,3.27,3.27,0,0,1-2.76,1.56,5.17,5.17,0,0,1-1.93-.4,2.59,2.59,0,0,0-.76-.23.59.59,0,0,0-.54.41h-.22l-.62-4.3H463a3.52,3.52,0,0,0,1.12,1.39,3.65,3.65,0,0,0,2.2.78,1.89,1.89,0,0,0,1.64-.83,3,3,0,0,0,.51-1.77,3.09,3.09,0,0,0-.82-2.2,20.69,20.69,0,0,0-2-1.67,7.49,7.49,0,0,1-2.15-2.36,5.41,5.41,0,0,1-.54-2.4,4.83,4.83,0,0,1,1.33-3.58,3.16,3.16,0,0,1,2.3-1,4.82,4.82,0,0,1,2,.53.94.94,0,0,0,.35.1c.16,0,.3-.13.43-.39h.24Z" transform="translate(-5.3 -11.52)"/></svg>